<svg width="273" height="270" viewBox="0 0 273 270" fill="none" xmlns="http://www.w3.org/2000/svg">
<rect width="273" height="270" fill="none"/>
<path fill-rule="evenodd" clip-rule="evenodd" d="M117.845 10.1401C104.497 12.3961 92.4582 16.3311 79.8242 22.5671C64.5722 30.0961 59.8532 33.9891 58.9352 39.7991C58.3802 43.3061 57.2062 45.0881 52.4712 49.6061C49.2892 52.6421 44.5552 56.2421 41.9502 57.6061C38.0762 59.6341 36.3222 61.5571 32.3112 68.1721C26.0772 78.4541 21.8152 87.9501 18.8852 98.0851C5.50319 144.378 22.8912 196.488 61.4032 225.508C73.3602 234.518 88.7202 242.423 91.8992 241.203C93.1352 240.728 91.8652 238.804 86.1832 232.542C82.1662 228.115 76.9042 221.7 74.4902 218.288C68.6452 210.026 61.0942 194.177 57.7172 183.085C55.2532 174.989 54.9722 172.527 54.9212 158.585C54.8612 142.474 55.6112 138.205 60.5402 126.585C62.8752 121.082 68.5162 111.585 69.4502 111.585C69.8252 111.585 69.0262 115.069 67.6742 119.326C64.1822 130.325 62.3542 139.703 61.6642 150.166C59.3912 184.641 79.5752 222.801 108.641 238.982C113.479 241.675 117.979 244.641 118.641 245.573C121.046 248.958 124.051 249.585 137.872 249.585C183.695 249.585 223.443 225.852 243.955 186.243C252.343 170.046 258.345 147.494 258.345 132.171C258.345 125.575 258.082 124.595 255.669 122.182C254.197 120.71 252.319 119.636 251.495 119.796C250.671 119.955 247.832 123.851 245.187 128.454C236.434 143.684 224.177 156.515 211.345 163.879C200.359 170.184 200.593 168.884 212.564 157.12C219.01 150.786 226.724 142.337 229.707 138.344C244.91 117.999 251.247 92.6871 244.963 77.4101C238.776 62.3661 218.965 39.0861 203.845 29.0921C193.39 22.1821 183.713 17.3901 181.008 17.7831C179.326 18.0281 180.846 19.4241 187.845 24.0631C208.689 37.8761 228.85 63.9431 232.76 82.1351C233.392 85.0711 233.287 85.1851 229.976 85.1851C226.678 85.1851 226.426 84.9151 223.865 78.6351C213.676 53.6451 191.658 32.1921 165.29 21.5631C158.989 19.0231 157.017 17.6871 154.945 14.5571C153.145 11.8371 151.268 10.3801 148.616 9.64313C143.52 8.22813 127.643 8.48513 117.845 10.1401ZM113.043 23.6111C106.848 24.5881 102.206 26.4281 101.655 28.1251C101.47 28.6981 101.899 29.9611 102.61 30.9331C103.762 32.5081 104.605 32.5861 110.374 31.6501C123.654 29.4951 141.13 30.7531 153.345 34.7421C195.618 48.5471 220.071 89.1201 209.863 128.516C207.914 136.038 202.463 148.585 201.144 148.585C200.63 148.585 200.449 147.797 200.741 146.835C201.033 145.873 201.756 141.105 202.348 136.24C206.356 103.307 186.017 70.9971 149.845 52.8391C132.892 44.3281 117.653 41.0541 98.7232 41.8561C84.3772 42.4631 75.1032 44.6341 64.3452 49.9021C57.3102 53.3471 46.0082 63.3491 40.5292 70.9781C37.1732 75.6511 37.4532 77.3451 40.9402 73.4661C47.0612 66.6601 64.2092 57.1551 78.0572 52.8951C86.1432 50.4071 88.2032 50.1911 103.845 50.1911C119.365 50.1911 121.585 50.4191 129.345 52.8141C158.03 61.6671 179.494 78.4111 190.282 100.35C195.301 110.557 196.73 117.031 196.736 129.585C196.74 139.555 196.373 142.15 193.977 149.085C190.574 158.94 187.68 163.985 180.734 172.172C175.636 178.182 174.53 180.436 175.972 181.878C178.375 184.282 196.063 167.805 204.302 155.488C215.057 139.41 219.837 123.097 219.074 105.085C218.522 92.0741 214.88 79.7741 208.183 68.3071C200.004 54.3041 181.405 37.9441 165.762 30.9941C151.629 24.7141 127.489 21.3341 113.043 23.6111ZM149.845 45.3951C151.495 46.4231 156.418 49.2491 160.785 51.6741C171.634 57.7011 185.129 70.6931 192.768 82.4671C196.021 87.4801 198.882 91.3811 199.126 91.1371C200.051 90.2121 196.332 81.4051 192.715 75.9561C187.777 68.5161 177.31 58.0291 170.031 53.2281C164.15 49.3491 155.341 45.4051 149.845 44.1901L146.845 43.5271L149.845 45.3951ZM83.8062 62.0211C63.1172 67.3701 44.8802 79.8131 37.9832 93.2851C35.0742 98.9691 36.2312 98.8251 41.1902 92.8871C46.6872 86.3051 54.8232 78.5851 56.2642 78.5851C58.3402 78.5851 58.3732 80.7381 56.3402 83.5921C53.5092 87.5671 54.3942 87.3681 60.6952 82.6111C67.3452 77.5901 80.7562 71.3381 89.8452 69.0221C98.5052 66.8151 115.417 66.5461 124.124 68.4781C127.578 69.2441 130.6 70.1881 130.84 70.5761C131.08 70.9651 128.704 71.8481 125.56 72.5391C117.849 74.2341 110.345 77.5231 110.345 79.2081C110.345 81.0951 111.624 80.9491 120.793 78.0211C137.792 72.5931 156.381 75.5921 170.289 86.0061C177.868 91.6811 178.545 87.7481 171.135 81.0861C163.007 73.7781 145.063 65.6451 128.091 61.5761C115.945 58.6641 96.0132 58.8641 83.8062 62.0211ZM82.3452 76.0181C67.8282 80.0641 52.8602 92.0811 43.6502 107.085C37.5612 117.004 32.4022 133.572 32.3622 143.335C32.3482 146.881 32.6662 147.585 34.2862 147.585C35.3542 147.585 36.5052 148.035 36.8452 148.585C38.1242 150.654 39.3452 149.464 39.3452 146.15C39.3452 136.386 45.3362 118.193 51.9632 107.833C60.1182 95.0851 74.8532 82.8541 89.1322 76.9821L94.8452 74.6321L90.8452 74.6981C88.6452 74.7341 84.8202 75.3281 82.3452 76.0181ZM120.914 83.1021C103.56 89.1101 91.6242 102.82 87.8772 121.046C86.2552 128.938 86.3532 132.116 88.5292 142.085C92.2102 158.947 107.601 174.565 123.345 177.413C126.37 177.96 128.948 178.308 129.074 178.185C129.199 178.062 125.711 176.493 121.323 174.698C110.287 170.186 98.2852 159.245 101.187 156.343C101.89 155.64 103.892 156.789 107.53 159.985C118.139 169.305 130.428 173.007 143.387 170.785C176.471 165.111 190.048 126.491 167.697 101.632C164.929 98.5531 163.364 95.9781 163.711 95.0741C164.653 92.6191 165.869 93.3041 171.64 99.5371C178.474 106.919 181.909 113.801 183.867 124.038C184.701 128.393 185.653 132.21 185.984 132.52C186.315 132.831 186.392 129.24 186.155 124.54C185.81 117.682 185.125 114.719 182.686 109.54C176.325 96.0271 165.892 86.6881 152.562 82.5701C143.281 79.7041 130.09 79.9251 120.914 83.1021ZM91.1202 88.7011C82.1312 98.1501 76.0402 110.916 75.9072 120.585C75.8552 124.331 76.1572 125.085 77.7092 125.085C79.1872 125.085 79.9552 123.577 81.4262 117.787C83.7482 108.643 88.2112 100.192 94.5362 92.9651C97.2322 89.8841 99.2672 86.8501 99.0582 86.2241C98.1862 83.6041 95.0322 84.5881 91.1202 88.7011ZM125.345 92.1141C104.974 97.7671 93.7282 120.025 100.303 141.673C102.221 147.987 103.313 149.733 108.677 155.058C117.864 164.181 122.43 166.067 135.345 166.077C145.174 166.084 146.271 165.877 152.5 162.829C166.209 156.123 173.71 144.062 173.797 128.585C173.84 121.055 173.483 119.32 170.671 113.384C162.513 96.1651 143.277 87.1381 125.345 92.1141ZM122.345 98.6621C117.349 100.918 110.938 106.641 108.763 110.785C106.448 115.194 106.978 119.372 110.268 122.662C115.88 128.274 123.669 125.661 127.421 116.908C128.929 113.39 130.166 112.162 133.75 110.626C140.609 107.685 142.17 103.319 137.89 99.0401C134.78 95.9291 128.72 95.7821 122.345 98.6621ZM104.734 131.015C103.738 133.61 105.133 135.754 107.591 135.405C109.243 135.17 109.845 134.418 109.845 132.585C109.845 130.752 109.243 130 107.591 129.765C106.238 129.573 105.095 130.073 104.734 131.015ZM247.085 141.402C234.46 160.48 214.887 174.859 185.425 186.701C177.727 189.795 177.29 190.113 180.333 190.41C188.855 191.243 206.007 186.255 218.142 179.415C228.765 173.427 241.062 161.198 245.148 152.557C247.757 147.04 250.74 137.585 249.872 137.585C249.728 137.585 248.474 139.303 247.085 141.402ZM71.4672 140.49C70.3982 141.166 70.2442 142.902 70.7802 148.223C71.7732 158.064 74.0052 165.783 78.9022 176.309C90.6902 201.647 112.249 219.823 139.95 227.779C146.729 229.726 150.178 230.046 164.345 230.043C179.612 230.04 181.443 229.839 188.845 227.346C196.803 224.666 209.818 216.949 214.077 212.386C216.131 210.185 215.76 210.26 209.395 213.33C197.707 218.969 184.91 221.797 168.639 222.335C152.679 222.863 144.646 221.597 131.136 216.423C105.25 206.511 82.5192 179.653 77.6572 153.237C75.1602 139.673 74.5952 138.51 71.4672 140.49ZM90.8092 163.643C89.1992 166.248 100.096 177.789 109.494 183.432C119.366 189.36 136.254 192.044 148.511 189.632C156.335 188.093 167.345 183.205 167.345 181.27C167.345 177.804 164.888 177.698 157.83 180.858C151.733 183.588 149.474 184.038 140.067 184.397C122.736 185.058 112.127 181.122 99.8772 169.485C95.8822 165.69 92.3542 162.585 92.0382 162.585C91.7222 162.585 91.1692 163.061 90.8092 163.643ZM75.3452 186.512C75.3452 187.572 76.8972 191.417 78.7942 195.056C87.2312 211.243 103.084 226.054 117.368 231.093C122.651 232.957 122.232 232.521 112.103 225.621C99.5022 217.036 86.1232 202.347 79.6892 190.033C76.7242 184.358 75.3452 183.24 75.3452 186.512ZM214.845 191.58C196.597 201.494 175.533 204.804 153.815 201.17C147.099 200.046 142.546 199.773 139.865 200.334L135.885 201.166L141.365 203.371C164.858 212.821 191.075 212.183 212.845 201.631C217.245 199.498 222.645 196.176 224.845 194.248C228.219 191.292 228.672 190.457 227.738 188.914C225.999 186.041 224.448 186.362 214.845 191.58ZM117.836 201.191C122.837 205.605 133.704 211 142.845 213.607C151.272 216.01 163.345 217.331 163.345 215.851C163.345 213.939 160.853 212.859 154.897 212.189C147.257 211.331 133.628 206.755 123.414 201.62C119.001 199.401 115.042 197.604 114.617 197.627C114.192 197.65 115.641 199.254 117.836 201.191Z" fill="#2D2525"/>
</svg>
